<?xml version="1.0" encoding="UTF-8"?>
<svg id="Capa_2" data-name="Capa 2" xmlns="http://www.w3.org/2000/svg" viewBox="0 0 1917.15 655.31">
  <defs>
    <style>
      .cls-1 {
        fill: #009bc1;
      }

      .cls-2 {
        fill: #989fab;
      }
    </style>
  </defs>
  <g id="Capa_1-2" data-name="Capa 1">
    <g>
      <path class="cls-1" d="M1105.19,477.86c112.3-3.94,215,9.77,333.28,57.91,21.93,8.93,43.87,17.81,66.2,25.75,126.01,44.77,262.17,59.77,380.23-14.59,7.12-4.48,13.65-9.93,21.05-13.91-42.87,61.22-106.41,104.01-180.7,117.09-163,28.69-360.56-68.93-521.89-100.12-87.27-16.87-148.36-12.88-235.23.69-77.62,12.12-153.44,33.27-226.89,60.49-4.49-.62-8.92-4.92-5.73-9.29,109.62-75.41,235.78-119.32,369.67-124.02Z"/>
      <path class="cls-2" d="M1657.94,461.1c-4.1,3.58-9.98,4.28-14.79,1.73-304.05-161.67-671.2-120.91-992.94-37.15C427.74,483.61,213.43,567.09,0,650.92c296.66-244.71,667.66-393.98,1047.09-453.95,201.17-31.79,408.9-40.07,611.5-19.14,85.14,8.8,169.74,23.17,252.4,44.93,6.4,1.68,8.31,9.85,3.33,14.21l-256.38,224.13Z"/>
      <path class="cls-2" d="M1240.66,106.05c-223.81-32-437.96,48.58-646.78,115.34-.59.19-1.14-.44-.84-.98.4-.72,1.05-1.43,1.62-2.13,11.31-13.74,31.39-30.12,45.52-41.42,69.31-55.46,159.26-102,242.81-131.95,115.8-41.51,296.13-89.71,388.73,35.07l19.1,28.9c1.83,2.77-.56,6.39-3.83,5.78l-46.34-8.62Z"/>
    </g>
  </g>
</svg>