<?xml version="1.0" encoding="UTF-8"?>
<svg id="Capa_2" data-name="Capa 2" xmlns="http://www.w3.org/2000/svg" viewBox="0 0 4567 598.72">
  <defs>
    <style>
      .cls-1 {
        fill: #009bc1;
      }

      .cls-2 {
        fill: #142a3f;
      }
    </style>
  </defs>
  <g id="Capa_1-2" data-name="Capa 1">
    <g>
      <g>
        <path class="cls-1" d="M1009.75,436.59c102.6-3.6,196.44,8.93,304.5,52.9,20.04,8.15,40.08,16.28,60.48,23.52,115.12,40.9,239.53,54.61,347.4-13.33,6.5-4.1,12.47-9.07,19.24-12.71-39.17,55.93-97.22,95.03-165.09,106.98-148.92,26.22-329.42-62.98-476.82-91.47-79.73-15.41-135.55-11.77-214.92.63-70.91,11.08-140.19,30.4-207.3,55.27-4.1-.57-8.15-4.49-5.23-8.48,100.15-68.9,215.42-109.01,337.75-113.31Z"/>
        <path class="cls-2" d="M1514.76,421.28c-3.74,3.27-9.12,3.91-13.51,1.58-277.79-147.71-613.24-110.47-907.19-33.94C390.8,441.85,195,518.12,0,594.71,271.04,371.13,610,234.75,956.67,179.96c183.8-29.05,373.58-36.61,558.69-17.49,77.78,8.04,155.08,21.17,230.6,41.05,5.85,1.54,7.59,9,3.04,12.98l-234.24,204.78Z"/>
        <path class="cls-2" d="M1133.52,96.89c-204.48-29.24-400.14,44.38-590.93,105.38-.54.17-1.04-.4-.76-.9.36-.66.96-1.31,1.48-1.94,10.34-12.55,28.68-27.52,41.59-37.84,63.33-50.67,145.5-93.19,221.84-120.55,105.8-37.93,270.55-81.96,355.16,32.04l17.45,26.4c1.67,2.53-.51,5.83-3.5,5.28l-42.34-7.87Z"/>
      </g>
      <g>
        <path class="cls-2" d="M2416.68,32.23v272.09h-66.28v-163.17l-60.85,163.17h-53.49l-61.24-163.56v163.56h-66.28V32.23h78.29l76.36,188.37,75.58-188.37h77.91Z"/>
        <path class="cls-2" d="M2633.73,256.26h-101.55l-16.28,48.06h-69.38l98.45-272.09h76.74l98.45,272.09h-70.15l-16.28-48.06ZM2616.67,205.1l-33.72-99.61-33.33,99.61h67.05Z"/>
        <path class="cls-2" d="M2888.76,304.32l-56.59-102.71h-15.89v102.71h-66.28V32.23h111.24c21.44,0,39.73,3.75,54.84,11.24,15.12,7.5,26.42,17.77,33.92,30.81,7.49,13.05,11.24,27.59,11.24,43.6,0,18.09-5.1,34.24-15.31,48.45-10.21,14.21-25.26,24.29-45.16,30.23l62.79,107.75h-74.8ZM2816.28,154.71h41.08c12.14,0,21.25-2.97,27.33-8.91,6.07-5.94,9.11-14.34,9.11-25.19s-3.04-18.47-9.11-24.42c-6.08-5.94-15.18-8.91-27.33-8.91h-41.08v67.44Z"/>
        <path class="cls-2" d="M3068.99,85.33v55.04h88.76v51.16h-88.76v59.69h100.39v53.1h-166.66V32.23h166.66v53.1h-100.39Z"/>
        <path class="cls-2" d="M3497.27,188.24c9.56,12.27,14.34,26.29,14.34,42.05,0,22.74-7.95,40.76-23.84,54.07-15.89,13.31-38.05,19.96-66.47,19.96h-126.74V32.23h122.48c27.65,0,49.28,6.33,64.92,18.99,15.63,12.66,23.45,29.84,23.45,51.55,0,16.02-4.2,29.33-12.6,39.92-8.4,10.6-19.57,17.96-33.53,22.09,15.76,3.36,28.42,11.18,37.98,23.45ZM3360.83,142.31h43.41c10.85,0,19.19-2.39,25-7.17,5.81-4.78,8.72-11.82,8.72-21.12s-2.91-16.41-8.72-21.32c-5.82-4.91-14.15-7.36-25-7.36h-43.41v56.98ZM3435.45,243.28c6.07-5.04,9.11-12.34,9.11-21.9s-3.17-17.05-9.5-22.48c-6.33-5.43-15.06-8.14-26.16-8.14h-48.06v60.08h48.84c11.11,0,19.7-2.52,25.78-7.56Z"/>
        <path class="cls-2" d="M3608.31,289.21c-21.32-11.88-38.24-28.49-50.77-49.81-12.54-21.32-18.8-45.28-18.8-71.9s6.26-50.51,18.8-71.7c12.53-21.18,29.45-37.72,50.77-49.61,21.32-11.88,44.77-17.83,70.35-17.83s49.03,5.95,70.35,17.83c21.32,11.89,38.11,28.43,50.39,49.61,12.27,21.19,18.41,45.09,18.41,71.7s-6.2,50.58-18.61,71.9c-12.4,21.32-29.2,37.92-50.39,49.81-21.19,11.89-44.57,17.83-70.15,17.83s-49.03-5.94-70.35-17.83ZM3730.79,224.87c13.05-14.47,19.57-33.59,19.57-57.36s-6.53-43.22-19.57-57.56c-13.05-14.34-30.42-21.51-52.13-21.51s-39.47,7.11-52.52,21.32c-13.05,14.21-19.57,33.47-19.57,57.75s6.52,43.22,19.57,57.56c13.05,14.34,30.56,21.51,52.52,21.51s39.08-7.23,52.13-21.7Z"/>
        <path class="cls-2" d="M4024,256.26h-101.55l-16.28,48.06h-69.38l98.45-272.09h76.74l98.45,272.09h-70.15l-16.28-48.06ZM4006.94,205.1l-33.72-99.61-33.33,99.61h67.05Z"/>
        <path class="cls-2" d="M4336,32.23v53.1h-72.09v218.99h-66.28V85.33h-72.09v-53.1h210.46Z"/>
        <path class="cls-2" d="M4414.3,297.35c-15.76-6.46-28.36-16.02-37.79-28.68-9.43-12.66-14.41-27.91-14.92-45.74h70.54c1.03,10.08,4.52,17.77,10.47,23.06,5.94,5.3,13.69,7.95,23.26,7.95s17.57-2.26,23.26-6.78c5.68-4.52,8.53-10.79,8.53-18.8,0-6.72-2.27-12.27-6.78-16.67-4.52-4.39-10.08-8.01-16.66-10.85-6.59-2.84-15.96-6.07-28.1-9.69-17.57-5.43-31.92-10.85-43.02-16.28-11.11-5.43-20.68-13.43-28.68-24.03-8.01-10.59-12.01-24.42-12.01-41.47,0-25.32,9.17-45.15,27.52-59.49,18.34-14.34,42.25-21.51,71.7-21.51s54.13,7.17,72.48,21.51c18.35,14.34,28.16,34.3,29.46,59.88h-71.7c-.52-8.78-3.75-15.7-9.69-20.74-5.95-5.04-13.57-7.56-22.87-7.56-8.01,0-14.47,2.13-19.38,6.4-4.91,4.26-7.36,10.4-7.36,18.41,0,8.79,4.13,15.64,12.4,20.54,8.27,4.91,21.18,10.21,38.76,15.89,17.57,5.95,31.84,11.63,42.83,17.05,10.98,5.43,20.48,13.31,28.49,23.64,8.01,10.34,12.01,23.64,12.01,39.92s-3.94,29.59-11.82,42.25c-7.88,12.66-19.32,22.74-34.3,30.23-14.99,7.5-32.69,11.24-53.1,11.24s-37.73-3.23-53.49-9.69Z"/>
      </g>
      <g>
        <path class="cls-1" d="M2247.24,386.16v186.8h-18.71v-87.39h-101.28v87.39h-18.71v-186.8h18.71v83.91h101.28v-83.91h18.71Z"/>
        <path class="cls-1" d="M2491.49,386.16l-70.82,186.8h-21.38l-70.82-186.8h20.31l61.2,166.49,61.73-166.49h19.78Z"/>
        <path class="cls-1" d="M2681.22,528.6h-84.98l-16.3,44.36h-19.78l68.14-184.39h21.11l67.88,184.39h-19.78l-16.3-44.36ZM2675.61,513.1l-36.88-101.01-36.88,101.01h73.76Z"/>
        <path class="cls-1" d="M2900.08,572.96l-46.23-78.03h-34.47v78.03h-18.71v-186.8h56.12c20.85,0,36.65,4.99,47.43,14.96,10.78,9.98,16.17,23.07,16.17,39.28,0,13.54-3.88,25.08-11.63,34.61-7.75,9.53-19.2,15.72-34.34,18.57l48.1,79.37h-22.45ZM2819.38,479.69h37.68c14.6,0,25.61-3.56,33-10.69,7.39-7.12,11.09-16.66,11.09-28.59s-3.56-21.78-10.69-28.46c-7.13-6.68-18.35-10.02-33.67-10.02h-37.41v77.76Z"/>
      </g>
    </g>
  </g>
</svg>